<?xml version="1.0" encoding="UTF-8" standalone="no"?>
<svg
   xmlns:lucid="lucid"
   xmlns:dc="http://purl.org/dc/elements/1.1/"
   xmlns:cc="http://creativecommons.org/ns#"
   xmlns:rdf="http://www.w3.org/1999/02/22-rdf-syntax-ns#"
   xmlns:svg="http://www.w3.org/2000/svg"
   xmlns="http://www.w3.org/2000/svg"
   xmlns:xlink="http://www.w3.org/1999/xlink"
   xmlns:sodipodi="http://sodipodi.sourceforge.net/DTD/sodipodi-0.dtd"
   xmlns:inkscape="http://www.inkscape.org/namespaces/inkscape"
   width="1964.05"
   height="1682"
   version="1.1"
   id="svg1016"
   sodipodi:docname="QR Security Flow Simple 2.svg"
   inkscape:version="1.0.2 (e86c870879, 2021-01-15, custom)">
  <metadata
     id="metadata1022">
    <rdf:RDF>
      <cc:Work
         rdf:about="">
        <dc:format>image/svg+xml</dc:format>
        <dc:type
           rdf:resource="http://purl.org/dc/dcmitype/StillImage" />
      </cc:Work>
    </rdf:RDF>
  </metadata>
  <defs
     id="defs1020">
    <rect
       x="1828.8413"
       y="647.43651"
       width="178.54563"
       height="31.704365"
       id="rect1891" />
  </defs>
  <sodipodi:namedview
     pagecolor="#ffffff"
     bordercolor="#666666"
     borderopacity="1"
     objecttolerance="10"
     gridtolerance="10"
     guidetolerance="10"
     inkscape:pageopacity="0"
     inkscape:pageshadow="2"
     inkscape:window-width="2560"
     inkscape:window-height="1361"
     id="namedview1018"
     showgrid="false"
     inkscape:zoom="0.59928656"
     inkscape:cx="982.02502"
     inkscape:cy="841"
     inkscape:window-x="-9"
     inkscape:window-y="-9"
     inkscape:window-maximized="1"
     inkscape:current-layer="svg1016" />
  <g
     transform="translate(4.045774694809893 0)"
     lucid:page-tab-id="0_0"
     id="g1014">
    <path
       d="M0 0h3676.8v2582.4H0z"
       fill="#fff"
       id="path2" />
    <path
       d="M15.95 26c0-3.3 2.7-6 6-6h632c3.32 0 6 2.7 6 6v48c0 3.3-2.68 6-6 6h-632c-3.3 0-6-2.7-6-6z"
       stroke="#000"
       stroke-opacity="0"
       stroke-width="3"
       fill="#fff"
       fill-opacity="0"
       id="path4" />
    <path
       d="M1149 226c0-3.3 2.7-6 6-6h388.05c3.3 0 6 2.7 6 6v168c0 3.3-2.7 6-6 6H1155c-3.3 0-6-2.7-6-6z"
       stroke="#0c7cba"
       stroke-width="3"
       fill="#fff"
       id="path14" />
    <use
       xlink:href="#e"
       transform="matrix(1,0,0,1,1161,232) translate(146.2777777777778 85.62499999999999)"
       id="use16" />
    <path
       d="M80 226c0-3.3 2.7-6 6-6h288c3.3 0 6 2.7 6 6v168c0 3.3-2.7 6-6 6H86c-3.3 0-6-2.7-6-6z"
       stroke="#0c7cba"
       stroke-width="3"
       fill="#fff"
       id="path18" />
    <path
       d="M1149 726c0-3.3 2.7-6 6-6h388.05c3.3 0 6 2.7 6 6v188c0 3.3-2.7 6-6 6H1155c-3.3 0-6-2.7-6-6z"
       stroke="#0c7cba"
       stroke-width="3"
       fill="#fff"
       id="path22" />
    <use
       xlink:href="#g"
       transform="matrix(1,0,0,1,1161,732) translate(109.66666666666669 97.99999999999999)"
       id="use24" />
    <path
       d="M1149 1186c0-3.3 2.7-6 6-6h388.05c3.3 0 6 2.7 6 6v188c0 3.3-2.7 6-6 6H1155c-3.3 0-6-2.7-6-6z"
       stroke="#0c7cba"
       stroke-width="3"
       fill="#fff"
       id="path26" />
    <path
       d="M549 173.27c0 11.04-8.95 20-20 20s-20-8.96-20-20c0-11.05 8.95-20 20-20s20 8.95 20 20z"
       fill="#3aa6dd"
       id="path32" />
    <use
       xlink:href="#j"
       transform="matrix(1,0,0,1,514,158.26666666666665) translate(8.214876543209877 21.430555555555557)"
       id="use34" />
    <path
       d="M566 146c0-3.3 2.7-6 6-6h437.98c3.3 0 6 2.7 6 6v122.27c0 3.3-2.7 6-6 6H572c-3.3 0-6-2.7-6-6z"
       stroke="#000"
       stroke-opacity="0"
       stroke-width="3"
       fill="#fff"
       fill-opacity="0"
       id="path36" />
    <path
       d="M382.5 310H1129"
       stroke="#5e5e5e"
       stroke-width="2"
       fill="none"
       id="path72" />
    <path
       d="M382.54 311h-1.04v-2h1.04z"
       fill="#5e5e5e"
       id="path74" />
    <path
       d="M1144.26 310l-14.26 4.64v-9.28z"
       stroke="#5e5e5e"
       stroke-width="2"
       fill="#5e5e5e"
       id="path76" />
    <path
       d="M1349.02 402.5V700"
       stroke="#5e5e5e"
       stroke-width="2"
       fill="none"
       id="path78" />
    <path
       d="M1350.02 402.53h-2v-1.03h2z"
       fill="#5e5e5e"
       id="path80" />
    <path
       d="M1349.02 715.26L1344.4 701h9.26z"
       stroke="#5e5e5e"
       stroke-width="2"
       fill="#5e5e5e"
       id="path82" />
    <path
       d="M849 505.27c0 11.04-8.95 20-20 20s-20-8.96-20-20c0-11.05 8.95-20 20-20s20 8.95 20 20z"
       fill="#3aa6dd"
       id="path84" />
    <use
       xlink:href="#z"
       transform="matrix(1,0,0,1,814,490.266666666721) translate(8.214876543209877 21.430555555555557)"
       id="use86" />
    <path
       d="M866 466c0-3.3 2.7-6 6-6h437.98c3.3 0 6 2.7 6 6v122.27c0 3.3-2.7 6-6 6H872c-3.3 0-6-2.7-6-6z"
       stroke="#000"
       stroke-opacity="0"
       stroke-width="3"
       fill="#fff"
       fill-opacity="0"
       id="path88" />
    <path
       d="M1349.02 922.5V1160"
       stroke="#5e5e5e"
       stroke-width="2"
       fill="none"
       id="path108" />
    <path
       d="M1350.02 922.53h-2v-1.03h2z"
       fill="#5e5e5e"
       id="path110" />
    <path
       d="M1349.02 1175.26l-4.63-14.26h9.26z"
       stroke="#5e5e5e"
       stroke-width="2"
       fill="#5e5e5e"
       id="path112" />
    <path
       d="M777.55 820c0 11.05-8.96 20-20 20-11.05 0-20-8.95-20-20s8.95-20 20-20c11.04 0 20 8.95 20 20z"
       fill="#3aa6dd"
       id="path114" />
    <g
       id="g118">
      <use
         xlink:href="#I"
         transform="matrix(1,0,0,1,742.5457746946777,805) translate(8.214876543209877 21.430555555555557)"
         id="use116" />
    </g>
    <path
       d="M787.52 796.5c0-3.3 2.7-6 6-6h339.5c3.32 0 6 2.7 6 6v51c0 3.3-2.68 6-6 6h-339.5c-3.3 0-6-2.7-6-6z"
       stroke="#000"
       stroke-opacity="0"
       stroke-width="3"
       fill="#fff"
       fill-opacity="0"
       id="path120" />
    <path
       d="M853 1019.27c0 11.04-8.95 20-20 20s-20-8.96-20-20c0-11.05 8.95-20 20-20s20 8.95 20 20z"
       fill="#3aa6dd"
       id="path130" />
    <g
       id="g134">
      <use
         xlink:href="#L"
         transform="matrix(1,0,0,1,818,1004.266666666721) translate(8.214876543209877 21.430555555555557)"
         id="use132" />
    </g>
    <path
       d="M870 980c0-3.3 2.7-6 6-6h437.98c3.3 0 6 2.7 6 6v122.27c0 3.3-2.7 6-6 6H876c-3.3 0-6-2.7-6-6z"
       stroke="#000"
       stroke-opacity="0"
       stroke-width="3"
       fill="#fff"
       fill-opacity="0"
       id="path136" />
    <path
       d="M1551.55 820h358.95"
       stroke="red"
       stroke-width="2"
       fill="none"
       id="path158" />
    <path
       d="M1551.57 821h-1.02v-2h1.02z"
       fill="red"
       id="path160" />
    <path
       d="M1925.76 820l-14.26 4.64v-9.28z"
       stroke="red"
       stroke-width="2"
       fill="red"
       id="path162" />
    <path
       d="M1551.55 1280h358.95"
       stroke="red"
       stroke-width="2"
       fill="none"
       id="path164" />
    <path
       d="M1551.58 1281h-1.03v-2h1.03z"
       fill="red"
       id="path166" />
    <path
       d="M1925.76 1280l-14.26 4.64v-9.28z"
       stroke="red"
       stroke-width="2"
       fill="red"
       id="path168" />
    <path
       d="M1569 726c0-3.3 2.7-6 6-6h348c3.3 0 6 2.7 6 6v75c0 3.3-2.7 6-6 6h-348c-3.3 0-6-2.7-6-6z"
       stroke="#000"
       stroke-opacity="0"
       stroke-width="3"
       fill="#fff"
       fill-opacity="0"
       id="path170" />
    <path
       d="M1569 1151c0-3.3 2.7-6 6-6h328c3.3 0 6 2.7 6 6v104.33c0 3.32-2.7 6-6 6h-328c-3.3 0-6-2.68-6-6z"
       stroke="#000"
       stroke-opacity="0"
       stroke-width="3"
       fill="#fff"
       fill-opacity="0"
       id="path188" />
    <path
       d="M813.1 1277c0 11.05-8.96 20-20 20-11.05 0-20-8.95-20-20s8.95-20 20-20c11.04 0 20 8.95 20 20z"
       fill="#3aa6dd"
       id="path216" />
    <g
       id="g220">
      <use
         xlink:href="#ab"
         transform="matrix(1,0,0,1,778.09154938953,1262.0000000000155) translate(8.214876543209877 21.430555555555557)"
         id="use218" />
    </g>
    <path
       d="M817.6 1246c0-3.3 2.68-6 6-6h299.45c3.3 0 6 2.7 6 6v70c0 3.3-2.7 6-6 6H823.6c-3.32 0-6-2.7-6-6z"
       stroke="#000"
       stroke-opacity="0"
       stroke-width="3"
       fill="#fff"
       fill-opacity="0"
       id="path222" />
    <path
       d="M1349.02 1382.5l-.02 139"
       stroke="#1ccd3c"
       stroke-width="2"
       fill="none"
       id="path232" />
    <path
       d="M1350.02 1382.53h-2v-1.03h2z"
       fill="#1ccd3c"
       id="path234" />
    <path
       d="M1349 1536.76l-4.63-14.26h9.27z"
       stroke="#1ccd3c"
       stroke-width="2"
       fill="#1ccd3c"
       id="path236" />
    <path
       d="M1149 1586c0-3.3 2.7-6 6-6h388.05c3.3 0 6 2.7 6 6v70c0 3.3-2.7 6-6 6H1155c-3.3 0-6-2.7-6-6z"
       stroke="#000"
       stroke-opacity="0"
       stroke-width="3"
       fill="#fff"
       fill-opacity="0"
       id="path238" />
    <defs
       id="defs1012">
      <path
         fill="#0c7cba"
         d="M205 0l-28-72H64L36 0H1l101-248h38L239 0h-34zm-38-99l-47-123c-12 45-31 82-46 123h93"
         id="ag" />
      <path
         fill="#0c7cba"
         d="M84 4C-5 8 30-112 23-190h32v120c0 31 7 50 39 49 72-2 45-101 50-169h31l1 190h-30c-1-10 1-25-2-33-11 22-28 36-60 37"
         id="ah" />
      <path
         fill="#0c7cba"
         d="M59-47c-2 24 18 29 38 22v24C64 9 27 4 27-40v-127H5v-23h24l9-43h21v43h35v23H59v120"
         id="ai" />
      <path
         fill="#0c7cba"
         d="M106-169C34-169 62-67 57 0H25v-261h32l-1 103c12-21 28-36 61-36 89 0 53 116 60 194h-32v-121c2-32-8-49-39-48"
         id="aj" />
      <path
         fill="#0c7cba"
         d="M100-194c63 0 86 42 84 106H49c0 40 14 67 53 68 26 1 43-12 49-29l28 8c-11 28-37 45-77 45C44 4 14-33 15-96c1-61 26-98 85-98zm52 81c6-60-76-77-97-28-3 7-6 17-6 28h103"
         id="ak" />
      <path
         fill="#0c7cba"
         d="M117-194c89-4 53 116 60 194h-32v-121c0-31-8-49-39-48C34-167 62-67 57 0H25l-1-190h30c1 10-1 24 2 32 11-22 29-35 61-36"
         id="al" />
      <path
         fill="#0c7cba"
         d="M24-231v-30h32v30H24zM24 0v-190h32V0H24"
         id="am" />
      <path
         fill="#0c7cba"
         d="M96-169c-40 0-48 33-48 73s9 75 48 75c24 0 41-14 43-38l32 2c-6 37-31 61-74 61-59 0-76-41-82-99-10-93 101-131 147-64 4 7 5 14 7 22l-32 3c-4-21-16-35-41-35"
         id="an" />
      <path
         fill="#0c7cba"
         d="M141-36C126-15 110 5 73 4 37 3 15-17 15-53c-1-64 63-63 125-63 3-35-9-54-41-54-24 1-41 7-42 31l-33-3c5-37 33-52 76-52 45 0 72 20 72 64v82c-1 20 7 32 28 27v20c-31 9-61-2-59-35zM48-53c0 20 12 33 32 33 41-3 63-29 60-74-43 2-92-5-92 41"
         id="ao" />
      <path
         fill="#0c7cba"
         d="M100-194c62-1 85 37 85 99 1 63-27 99-86 99S16-35 15-95c0-66 28-99 85-99zM99-20c44 1 53-31 53-75 0-43-8-75-51-75s-53 32-53 75 10 74 51 75"
         id="ap" />
      <g
         id="a">
        <use
           transform="matrix(0.11111111111111108,0,0,0.11111111111111108,0,0)"
           xlink:href="#ag"
           id="use258" />
        <use
           transform="matrix(0.11111111111111108,0,0,0.11111111111111108,26.666666666666657,0)"
           xlink:href="#ah"
           id="use260" />
        <use
           transform="matrix(0.11111111111111108,0,0,0.11111111111111108,48.88888888888887,0)"
           xlink:href="#ai"
           id="use262" />
        <use
           transform="matrix(0.11111111111111108,0,0,0.11111111111111108,59.99999999999998,0)"
           xlink:href="#aj"
           id="use264" />
        <use
           transform="matrix(0.11111111111111108,0,0,0.11111111111111108,82.2222222222222,0)"
           xlink:href="#ak"
           id="use266" />
        <use
           transform="matrix(0.11111111111111108,0,0,0.11111111111111108,104.44444444444441,0)"
           xlink:href="#al"
           id="use268" />
        <use
           transform="matrix(0.11111111111111108,0,0,0.11111111111111108,126.66666666666663,0)"
           xlink:href="#ai"
           id="use270" />
        <use
           transform="matrix(0.11111111111111108,0,0,0.11111111111111108,137.77777777777774,0)"
           xlink:href="#am"
           id="use272" />
        <use
           transform="matrix(0.11111111111111108,0,0,0.11111111111111108,146.55555555555551,0)"
           xlink:href="#an"
           id="use274" />
        <use
           transform="matrix(0.11111111111111108,0,0,0.11111111111111108,166.55555555555551,0)"
           xlink:href="#ao"
           id="use276" />
        <use
           transform="matrix(0.11111111111111108,0,0,0.11111111111111108,188.77777777777771,0)"
           xlink:href="#ai"
           id="use278" />
        <use
           transform="matrix(0.11111111111111108,0,0,0.11111111111111108,199.88888888888883,0)"
           xlink:href="#am"
           id="use280" />
        <use
           transform="matrix(0.11111111111111108,0,0,0.11111111111111108,208.6666666666666,0)"
           xlink:href="#ap"
           id="use282" />
        <use
           transform="matrix(0.11111111111111108,0,0,0.11111111111111108,230.88888888888883,0)"
           xlink:href="#al"
           id="use284" />
      </g>
      <path
         fill="#0c7cba"
         d="M0 4l72-265h28L28 4H0"
         id="aq" />
      <use
         transform="matrix(0.11111111111111108,0,0,0.11111111111111108,0,0)"
         xlink:href="#aq"
         id="b" />
      <path
         fill="#0c7cba"
         d="M114-163C36-179 61-72 57 0H25l-1-190h30c1 12-1 29 2 39 6-27 23-49 58-41v29"
         id="ar" />
      <path
         fill="#0c7cba"
         d="M9 0v-24l116-142H16v-24h144v24L44-24h123V0H9"
         id="as" />
      <g
         id="c">
        <use
           transform="matrix(0.11111111111111108,0,0,0.11111111111111108,0,0)"
           xlink:href="#ag"
           id="use291" />
        <use
           transform="matrix(0.11111111111111108,0,0,0.11111111111111108,26.666666666666657,0)"
           xlink:href="#ah"
           id="use293" />
        <use
           transform="matrix(0.11111111111111108,0,0,0.11111111111111108,48.88888888888887,0)"
           xlink:href="#ai"
           id="use295" />
        <use
           transform="matrix(0.11111111111111108,0,0,0.11111111111111108,59.99999999999998,0)"
           xlink:href="#aj"
           id="use297" />
        <use
           transform="matrix(0.11111111111111108,0,0,0.11111111111111108,82.2222222222222,0)"
           xlink:href="#ap"
           id="use299" />
        <use
           transform="matrix(0.11111111111111108,0,0,0.11111111111111108,104.44444444444441,0)"
           xlink:href="#ar"
           id="use301" />
        <use
           transform="matrix(0.11111111111111108,0,0,0.11111111111111108,117.66666666666663,0)"
           xlink:href="#am"
           id="use303" />
        <use
           transform="matrix(0.11111111111111108,0,0,0.11111111111111108,126.4444444444444,0)"
           xlink:href="#as"
           id="use305" />
        <use
           transform="matrix(0.11111111111111108,0,0,0.11111111111111108,146.4444444444444,0)"
           xlink:href="#ao"
           id="use307" />
        <use
           transform="matrix(0.11111111111111108,0,0,0.11111111111111108,168.66666666666663,0)"
           xlink:href="#ai"
           id="use309" />
        <use
           transform="matrix(0.11111111111111108,0,0,0.11111111111111108,179.77777777777774,0)"
           xlink:href="#am"
           id="use311" />
        <use
           transform="matrix(0.11111111111111108,0,0,0.11111111111111108,188.55555555555551,0)"
           xlink:href="#ap"
           id="use313" />
        <use
           transform="matrix(0.11111111111111108,0,0,0.11111111111111108,210.77777777777771,0)"
           xlink:href="#al"
           id="use315" />
      </g>
      <path
         fill="#0c7cba"
         d="M63-220v92h138v28H63V0H30v-248h175v28H63"
         id="at" />
      <path
         fill="#0c7cba"
         d="M24 0v-261h32V0H24"
         id="au" />
      <path
         fill="#0c7cba"
         d="M206 0h-36l-40-164L89 0H53L-1-190h32L70-26l43-164h34l41 164 42-164h31"
         id="av" />
      <g
         id="d">
        <use
           transform="matrix(0.11111111111111108,0,0,0.11111111111111108,0,0)"
           xlink:href="#at"
           id="use321" />
        <use
           transform="matrix(0.11111111111111108,0,0,0.11111111111111108,24.333333333333325,0)"
           xlink:href="#au"
           id="use323" />
        <use
           transform="matrix(0.11111111111111108,0,0,0.11111111111111108,33.1111111111111,0)"
           xlink:href="#ap"
           id="use325" />
        <use
           transform="matrix(0.11111111111111108,0,0,0.11111111111111108,55.333333333333314,0)"
           xlink:href="#av"
           id="use327" />
      </g>
      <path
         fill="#0c7cba"
         d="M30-248c87 1 191-15 191 75 0 78-77 80-158 76V0H30v-248zm33 125c57 0 124 11 124-50 0-59-68-47-124-48v98"
         id="aw" />
      <path
         fill="#0c7cba"
         d="M140-251c81 0 123 46 123 126C263-46 219 4 140 4 59 4 17-45 17-125s42-126 123-126zm0 227c63 0 89-41 89-101s-29-99-89-99c-61 0-89 39-89 99S79-25 140-24"
         id="ax" />
      <path
         fill="#0c7cba"
         d="M185-189c-5-48-123-54-124 2 14 75 158 14 163 119 3 78-121 87-175 55-17-10-28-26-33-46l33-7c5 56 141 63 141-1 0-78-155-14-162-118-5-82 145-84 179-34 5 7 8 16 11 25"
         id="ay" />
      <g
         id="e">
        <use
           transform="matrix(0.11111111111111108,0,0,0.11111111111111108,0,0)"
           xlink:href="#aw"
           id="use333" />
        <use
           transform="matrix(0.11111111111111108,0,0,0.11111111111111108,26.666666666666657,0)"
           xlink:href="#ax"
           id="use335" />
        <use
           transform="matrix(0.11111111111111108,0,0,0.11111111111111108,57.77777777777776,0)"
           xlink:href="#ay"
           id="use337" />
      </g>
      <path
         fill="#0c7cba"
         d="M232-93c-1 65-40 97-104 97C67 4 28-28 28-90v-158h33c8 89-33 224 67 224 102 0 64-133 71-224h33v155"
         id="az" />
      <path
         fill="#0c7cba"
         d="M30 0v-248h187v28H63v79h144v27H63v87h162V0H30"
         id="aA" />
      <path
         fill="#0c7cba"
         d="M233-177c-1 41-23 64-60 70L243 0h-38l-65-103H63V0H30v-248c88 3 205-21 203 71zM63-129c60-2 137 13 137-47 0-61-80-42-137-45v92"
         id="aB" />
      <g
         id="f">
        <use
           transform="matrix(0.11111111111111108,0,0,0.11111111111111108,0,0)"
           xlink:href="#az"
           id="use343" />
        <use
           transform="matrix(0.11111111111111108,0,0,0.11111111111111108,28.777777777777768,0)"
           xlink:href="#ay"
           id="use345" />
        <use
           transform="matrix(0.11111111111111108,0,0,0.11111111111111108,55.44444444444443,0)"
           xlink:href="#aA"
           id="use347" />
        <use
           transform="matrix(0.11111111111111108,0,0,0.11111111111111108,82.11111111111109,0)"
           xlink:href="#aB"
           id="use349" />
      </g>
      <path
         fill="#0c7cba"
         d="M137-103V0h-34v-103L8-248h37l75 118 75-118h37"
         id="aC" />
      <path
         fill="#0c7cba"
         d="M135-143c-3-34-86-38-87 0 15 53 115 12 119 90S17 21 10-45l28-5c4 36 97 45 98 0-10-56-113-15-118-90-4-57 82-63 122-42 12 7 21 19 24 35"
         id="aD" />
      <path
         fill="#0c7cba"
         d="M101-234c-31-9-42 10-38 44h38v23H63V0H32v-167H5v-23h27c-7-52 17-82 69-68v24"
         id="aE" />
      <g
         id="g">
        <use
           transform="matrix(0.11111111111111108,0,0,0.11111111111111108,0,0)"
           xlink:href="#aC"
           id="use355" />
        <use
           transform="matrix(0.11111111111111108,0,0,0.11111111111111108,24.444444444444436,0)"
           xlink:href="#ah"
           id="use357" />
        <use
           transform="matrix(0.11111111111111108,0,0,0.11111111111111108,46.66666666666665,0)"
           xlink:href="#ao"
           id="use359" />
        <use
           transform="matrix(0.11111111111111108,0,0,0.11111111111111108,68.88888888888886,0)"
           xlink:href="#al"
           id="use361" />
        <use
           transform="matrix(0.11111111111111108,0,0,0.11111111111111108,91.11111111111107,0)"
           xlink:href="#aD"
           id="use363" />
        <use
           transform="matrix(0.11111111111111108,0,0,0.11111111111111108,111.11111111111106,0)"
           xlink:href="#aE"
           id="use365" />
        <use
           transform="matrix(0.11111111111111108,0,0,0.11111111111111108,122.22222222222216,0)"
           xlink:href="#ak"
           id="use367" />
        <use
           transform="matrix(0.11111111111111108,0,0,0.11111111111111108,144.4444444444444,0)"
           xlink:href="#ar"
           id="use369" />
      </g>
      <path
         fill="#0c7cba"
         d="M266 0h-40l-56-210L115 0H75L2-248h35L96-30l15-64 43-154h32l59 218 59-218h35"
         id="aF" />
      <g
         id="h">
        <use
           transform="matrix(0.11111111111111108,0,0,0.11111111111111108,0,0)"
           xlink:href="#aF"
           id="use373" />
        <use
           transform="matrix(0.11111111111111108,0,0,0.11111111111111108,36.222222222222214,0)"
           xlink:href="#ao"
           id="use375" />
        <use
           transform="matrix(0.11111111111111108,0,0,0.11111111111111108,58.44444444444443,0)"
           xlink:href="#au"
           id="use377" />
        <use
           transform="matrix(0.11111111111111108,0,0,0.11111111111111108,67.2222222222222,0)"
           xlink:href="#au"
           id="use379" />
        <use
           transform="matrix(0.11111111111111108,0,0,0.11111111111111108,75.99999999999997,0)"
           xlink:href="#ak"
           id="use381" />
        <use
           transform="matrix(0.11111111111111108,0,0,0.11111111111111108,98.22222222222219,0)"
           xlink:href="#ai"
           id="use383" />
      </g>
      <path
         fill="#0c7cba"
         d="M108 0H70L1-190h34L89-25l56-165h34"
         id="aG" />
      <g
         id="i">
        <use
           transform="matrix(0.11111111111111108,0,0,0.11111111111111108,0,0)"
           xlink:href="#ay"
           id="use387" />
        <use
           transform="matrix(0.11111111111111108,0,0,0.11111111111111108,26.666666666666657,0)"
           xlink:href="#ak"
           id="use389" />
        <use
           transform="matrix(0.11111111111111108,0,0,0.11111111111111108,48.88888888888887,0)"
           xlink:href="#ar"
           id="use391" />
        <use
           transform="matrix(0.11111111111111108,0,0,0.11111111111111108,62.11111111111109,0)"
           xlink:href="#aG"
           id="use393" />
        <use
           transform="matrix(0.11111111111111108,0,0,0.11111111111111108,82.11111111111109,0)"
           xlink:href="#ak"
           id="use395" />
        <use
           transform="matrix(0.11111111111111108,0,0,0.11111111111111108,104.3333333333333,0)"
           xlink:href="#ar"
           id="use397" />
      </g>
      <path
         fill="#fff"
         d="M23 0v-37h61v-169l-59 37v-38l62-41h46v211h57V0H23"
         id="aH" />
      <use
         transform="matrix(0.06790123456790123,0,0,0.06790123456790123,0,0)"
         xlink:href="#aH"
         id="j" />
      <path
         fill="#1d1c1d"
         d="M232-93c-1 65-40 97-104 97C67 4 28-28 28-90v-158h33c8 89-33 224 67 224 102 0 64-133 71-224h33v155"
         id="aI" />
      <path
         fill="#1d1c1d"
         d="M135-143c-3-34-86-38-87 0 15 53 115 12 119 90S17 21 10-45l28-5c4 36 97 45 98 0-10-56-113-15-118-90-4-57 82-63 122-42 12 7 21 19 24 35"
         id="aJ" />
      <path
         fill="#1d1c1d"
         d="M100-194c63 0 86 42 84 106H49c0 40 14 67 53 68 26 1 43-12 49-29l28 8c-11 28-37 45-77 45C44 4 14-33 15-96c1-61 26-98 85-98zm52 81c6-60-76-77-97-28-3 7-6 17-6 28h103"
         id="aK" />
      <path
         fill="#1d1c1d"
         d="M114-163C36-179 61-72 57 0H25l-1-190h30c1 12-1 29 2 39 6-27 23-49 58-41v29"
         id="aL" />
      <g
         id="k">
        <use
           transform="matrix(0.08024691358024691,0,0,0.08024691358024691,0,0)"
           xlink:href="#aI"
           id="use406" />
        <use
           transform="matrix(0.08024691358024691,0,0,0.08024691358024691,20.78395061728395,0)"
           xlink:href="#aJ"
           id="use408" />
        <use
           transform="matrix(0.08024691358024691,0,0,0.08024691358024691,35.22839506172839,0)"
           xlink:href="#aK"
           id="use410" />
        <use
           transform="matrix(0.08024691358024691,0,0,0.08024691358024691,51.27777777777777,0)"
           xlink:href="#aL"
           id="use412" />
      </g>
      <path
         fill="#1d1c1d"
         d="M96-169c-40 0-48 33-48 73s9 75 48 75c24 0 41-14 43-38l32 2c-6 37-31 61-74 61-59 0-76-41-82-99-10-93 101-131 147-64 4 7 5 14 7 22l-32 3c-4-21-16-35-41-35"
         id="aM" />
      <path
         fill="#1d1c1d"
         d="M141-36C126-15 110 5 73 4 37 3 15-17 15-53c-1-64 63-63 125-63 3-35-9-54-41-54-24 1-41 7-42 31l-33-3c5-37 33-52 76-52 45 0 72 20 72 64v82c-1 20 7 32 28 27v20c-31 9-61-2-59-35zM48-53c0 20 12 33 32 33 41-3 63-29 60-74-43 2-92-5-92 41"
         id="aN" />
      <path
         fill="#1d1c1d"
         d="M117-194c89-4 53 116 60 194h-32v-121c0-31-8-49-39-48C34-167 62-67 57 0H25l-1-190h30c1 10-1 24 2 32 11-22 29-35 61-36"
         id="aO" />
      <g
         id="l">
        <use
           transform="matrix(0.08024691358024691,0,0,0.08024691358024691,0,0)"
           xlink:href="#aJ"
           id="use418" />
        <use
           transform="matrix(0.08024691358024691,0,0,0.08024691358024691,14.444444444444443,0)"
           xlink:href="#aM"
           id="use420" />
        <use
           transform="matrix(0.08024691358024691,0,0,0.08024691358024691,28.888888888888886,0)"
           xlink:href="#aN"
           id="use422" />
        <use
           transform="matrix(0.08024691358024691,0,0,0.08024691358024691,44.93827160493827,0)"
           xlink:href="#aO"
           id="use424" />
        <use
           transform="matrix(0.08024691358024691,0,0,0.08024691358024691,60.987654320987644,0)"
           xlink:href="#aJ"
           id="use426" />
      </g>
      <path
         fill="#1d1c1d"
         d="M59-47c-2 24 18 29 38 22v24C64 9 27 4 27-40v-127H5v-23h24l9-43h21v43h35v23H59v120"
         id="aP" />
      <path
         fill="#1d1c1d"
         d="M106-169C34-169 62-67 57 0H25v-261h32l-1 103c12-21 28-36 61-36 89 0 53 116 60 194h-32v-121c2-32-8-49-39-48"
         id="aQ" />
      <g
         id="m">
        <use
           transform="matrix(0.08024691358024691,0,0,0.08024691358024691,0,0)"
           xlink:href="#aP"
           id="use431" />
        <use
           transform="matrix(0.08024691358024691,0,0,0.08024691358024691,8.024691358024691,0)"
           xlink:href="#aQ"
           id="use433" />
        <use
           transform="matrix(0.08024691358024691,0,0,0.08024691358024691,24.074074074074076,0)"
           xlink:href="#aK"
           id="use435" />
      </g>
      <path
         fill="#1d1c1d"
         d="M140-251c81 0 123 46 123 126C263-53 228-8 163 1c7 30 30 48 69 40v23c-55 16-95-15-103-61C56-3 17-48 17-125c0-80 42-126 123-126zm0 227c63 0 89-41 89-101s-29-99-89-99c-61 0-89 39-89 99S79-25 140-24"
         id="aR" />
      <path
         fill="#1d1c1d"
         d="M233-177c-1 41-23 64-60 70L243 0h-38l-65-103H63V0H30v-248c88 3 205-21 203 71zM63-129c60-2 137 13 137-47 0-61-80-42-137-45v92"
         id="aS" />
      <g
         id="n">
        <use
           transform="matrix(0.08024691358024691,0,0,0.08024691358024691,0,0)"
           xlink:href="#aR"
           id="use440" />
        <use
           transform="matrix(0.08024691358024691,0,0,0.08024691358024691,22.469135802469136,0)"
           xlink:href="#aS"
           id="use442" />
      </g>
      <path
         fill="#1d1c1d"
         d="M100-194c62-1 85 37 85 99 1 63-27 99-86 99S16-35 15-95c0-66 28-99 85-99zM99-20c44 1 53-31 53-75 0-43-8-75-51-75s-53 32-53 75 10 74 51 75"
         id="aT" />
      <path
         fill="#1d1c1d"
         d="M85-194c31 0 48 13 60 33l-1-100h32l1 261h-30c-2-10 0-23-3-31C134-8 116 4 85 4 32 4 16-35 15-94c0-66 23-100 70-100zm9 24c-40 0-46 34-46 75 0 40 6 74 45 74 42 0 51-32 51-76 0-42-9-74-50-73"
         id="aU" />
      <g
         id="o">
        <use
           transform="matrix(0.08024691358024691,0,0,0.08024691358024691,0,0)"
           xlink:href="#aM"
           id="use447" />
        <use
           transform="matrix(0.08024691358024691,0,0,0.08024691358024691,14.444444444444443,0)"
           xlink:href="#aT"
           id="use449" />
        <use
           transform="matrix(0.08024691358024691,0,0,0.08024691358024691,30.493827160493826,0)"
           xlink:href="#aU"
           id="use451" />
        <use
           transform="matrix(0.08024691358024691,0,0,0.08024691358024691,46.54320987654321,0)"
           xlink:href="#aK"
           id="use453" />
      </g>
      <g
         id="p">
        <use
           transform="matrix(0.08024691358024691,0,0,0.08024691358024691,0,0)"
           xlink:href="#aN"
           id="use456" />
        <use
           transform="matrix(0.08024691358024691,0,0,0.08024691358024691,16.049382716049383,0)"
           xlink:href="#aP"
           id="use458" />
      </g>
      <path
         fill="#1d1c1d"
         d="M30-248c87 1 191-15 191 75 0 78-77 80-158 76V0H30v-248zm33 125c57 0 124 11 124-50 0-59-68-47-124-48v98"
         id="aV" />
      <path
         fill="#1d1c1d"
         d="M140-251c81 0 123 46 123 126C263-46 219 4 140 4 59 4 17-45 17-125s42-126 123-126zm0 227c63 0 89-41 89-101s-29-99-89-99c-61 0-89 39-89 99S79-25 140-24"
         id="aW" />
      <path
         fill="#1d1c1d"
         d="M185-189c-5-48-123-54-124 2 14 75 158 14 163 119 3 78-121 87-175 55-17-10-28-26-33-46l33-7c5 56 141 63 141-1 0-78-155-14-162-118-5-82 145-84 179-34 5 7 8 16 11 25"
         id="aX" />
      <g
         id="q">
        <use
           transform="matrix(0.08024691358024691,0,0,0.08024691358024691,0,0)"
           xlink:href="#aV"
           id="use464" />
        <use
           transform="matrix(0.08024691358024691,0,0,0.08024691358024691,19.25925925925926,0)"
           xlink:href="#aW"
           id="use466" />
        <use
           transform="matrix(0.08024691358024691,0,0,0.08024691358024691,41.72839506172839,0)"
           xlink:href="#aX"
           id="use468" />
      </g>
      <path
         fill="#1d1c1d"
         d="M87 75C49 33 22-17 22-94c0-76 28-126 65-167h31c-38 41-64 92-64 168S80 34 118 75H87"
         id="aY" />
      <path
         fill="#1d1c1d"
         d="M127-220V0H93v-220H8v-28h204v28h-85"
         id="aZ" />
      <g
         id="r">
        <use
           transform="matrix(0.08024691358024691,0,0,0.08024691358024691,0,0)"
           xlink:href="#aY"
           id="use473" />
        <use
           transform="matrix(0.08024691358024691,0,0,0.08024691358024691,9.549382716049383,0)"
           xlink:href="#aZ"
           id="use475" />
        <use
           transform="matrix(0.08024691358024691,0,0,0.08024691358024691,27.123456790123456,0)"
           xlink:href="#aQ"
           id="use477" />
        <use
           transform="matrix(0.08024691358024691,0,0,0.08024691358024691,43.172839506172835,0)"
           xlink:href="#aK"
           id="use479" />
      </g>
      <path
         fill="#1d1c1d"
         d="M24-231v-30h32v30H24zM24 0v-190h32V0H24"
         id="ba" />
      <g
         id="s">
        <use
           transform="matrix(0.08024691358024691,0,0,0.08024691358024691,0,0)"
           xlink:href="#ba"
           id="use483" />
        <use
           transform="matrix(0.08024691358024691,0,0,0.08024691358024691,6.3395061728395055,0)"
           xlink:href="#aJ"
           id="use485" />
      </g>
      <path
         fill="#1d1c1d"
         d="M177-190C167-65 218 103 67 71c-23-6-38-20-44-43l32-5c15 47 100 32 89-28v-30C133-14 115 1 83 1 29 1 15-40 15-95c0-56 16-97 71-98 29-1 48 16 59 35 1-10 0-23 2-32h30zM94-22c36 0 50-32 50-73 0-42-14-75-50-75-39 0-46 34-46 75s6 73 46 73"
         id="bb" />
      <g
         id="t">
        <use
           transform="matrix(0.08024691358024691,0,0,0.08024691358024691,0,0)"
           xlink:href="#bb"
           id="use489" />
        <use
           transform="matrix(0.08024691358024691,0,0,0.08024691358024691,16.049382716049383,0)"
           xlink:href="#aK"
           id="use491" />
        <use
           transform="matrix(0.08024691358024691,0,0,0.08024691358024691,32.098765432098766,0)"
           xlink:href="#aO"
           id="use493" />
        <use
           transform="matrix(0.08024691358024691,0,0,0.08024691358024691,48.14814814814815,0)"
           xlink:href="#aK"
           id="use495" />
        <use
           transform="matrix(0.08024691358024691,0,0,0.08024691358024691,64.19753086419753,0)"
           xlink:href="#aL"
           id="use497" />
        <use
           transform="matrix(0.08024691358024691,0,0,0.08024691358024691,73.74691358024691,0)"
           xlink:href="#aN"
           id="use499" />
        <use
           transform="matrix(0.08024691358024691,0,0,0.08024691358024691,89.79629629629629,0)"
           xlink:href="#aP"
           id="use501" />
        <use
           transform="matrix(0.08024691358024691,0,0,0.08024691358024691,97.82098765432099,0)"
           xlink:href="#aK"
           id="use503" />
        <use
           transform="matrix(0.08024691358024691,0,0,0.08024691358024691,113.87037037037037,0)"
           xlink:href="#aU"
           id="use505" />
      </g>
      <path
         fill="#1d1c1d"
         d="M101-234c-31-9-42 10-38 44h38v23H63V0H32v-167H5v-23h27c-7-52 17-82 69-68v24"
         id="bc" />
      <path
         fill="#1d1c1d"
         d="M210-169c-67 3-38 105-44 169h-31v-121c0-29-5-50-35-48C34-165 62-65 56 0H25l-1-190h30c1 10-1 24 2 32 10-44 99-50 107 0 11-21 27-35 58-36 85-2 47 119 55 194h-31v-121c0-29-5-49-35-48"
         id="bd" />
      <g
         id="u">
        <use
           transform="matrix(0.08024691358024691,0,0,0.08024691358024691,0,0)"
           xlink:href="#bc"
           id="use510" />
        <use
           transform="matrix(0.08024691358024691,0,0,0.08024691358024691,8.024691358024691,0)"
           xlink:href="#aL"
           id="use512" />
        <use
           transform="matrix(0.08024691358024691,0,0,0.08024691358024691,17.574074074074076,0)"
           xlink:href="#aT"
           id="use514" />
        <use
           transform="matrix(0.08024691358024691,0,0,0.08024691358024691,33.623456790123456,0)"
           xlink:href="#bd"
           id="use516" />
      </g>
      <path
         fill="#1d1c1d"
         d="M266 0h-40l-56-210L115 0H75L2-248h35L96-30l15-64 43-154h32l59 218 59-218h35"
         id="be" />
      <path
         fill="#1d1c1d"
         d="M24 0v-261h32V0H24"
         id="bf" />
      <g
         id="v">
        <use
           transform="matrix(0.08024691358024691,0,0,0.08024691358024691,0,0)"
           xlink:href="#be"
           id="use521" />
        <use
           transform="matrix(0.08024691358024691,0,0,0.08024691358024691,26.160493827160494,0)"
           xlink:href="#aN"
           id="use523" />
        <use
           transform="matrix(0.08024691358024691,0,0,0.08024691358024691,42.20987654320987,0)"
           xlink:href="#bf"
           id="use525" />
        <use
           transform="matrix(0.08024691358024691,0,0,0.08024691358024691,48.54938271604938,0)"
           xlink:href="#bf"
           id="use527" />
        <use
           transform="matrix(0.08024691358024691,0,0,0.08024691358024691,54.888888888888886,0)"
           xlink:href="#aK"
           id="use529" />
        <use
           transform="matrix(0.08024691358024691,0,0,0.08024691358024691,70.93827160493827,0)"
           xlink:href="#aP"
           id="use531" />
      </g>
      <path
         fill="#1d1c1d"
         d="M108 0H70L1-190h34L89-25l56-165h34"
         id="bg" />
      <g
         id="w">
        <use
           transform="matrix(0.08024691358024691,0,0,0.08024691358024691,0,0)"
           xlink:href="#aX"
           id="use535" />
        <use
           transform="matrix(0.08024691358024691,0,0,0.08024691358024691,19.25925925925926,0)"
           xlink:href="#aK"
           id="use537" />
        <use
           transform="matrix(0.08024691358024691,0,0,0.08024691358024691,35.308641975308646,0)"
           xlink:href="#aL"
           id="use539" />
        <use
           transform="matrix(0.08024691358024691,0,0,0.08024691358024691,44.858024691358025,0)"
           xlink:href="#bg"
           id="use541" />
        <use
           transform="matrix(0.08024691358024691,0,0,0.08024691358024691,59.30246913580247,0)"
           xlink:href="#aK"
           id="use543" />
        <use
           transform="matrix(0.08024691358024691,0,0,0.08024691358024691,75.35185185185185,0)"
           xlink:href="#aL"
           id="use545" />
      </g>
      <g
         id="x">
        <use
           transform="matrix(0.08024691358024691,0,0,0.08024691358024691,0,0)"
           xlink:href="#aN"
           id="use548" />
        <use
           transform="matrix(0.08024691358024691,0,0,0.08024691358024691,16.049382716049383,0)"
           xlink:href="#aO"
           id="use550" />
        <use
           transform="matrix(0.08024691358024691,0,0,0.08024691358024691,32.098765432098766,0)"
           xlink:href="#aU"
           id="use552" />
      </g>
      <path
         fill="#1d1c1d"
         d="M179-190L93 31C79 59 56 82 12 73V49c39 6 53-20 64-50L1-190h34L92-34l54-156h33"
         id="bh" />
      <path
         fill="#1d1c1d"
         d="M115-194c55 1 70 41 70 98S169 2 115 4C84 4 66-9 55-30l1 105H24l-1-265h31l2 30c10-21 28-34 59-34zm-8 174c40 0 45-34 45-75s-6-73-45-74c-42 0-51 32-51 76 0 43 10 73 51 73"
         id="bi" />
      <path
         fill="#1d1c1d"
         d="M33-261c38 41 65 92 65 168S71 34 33 75H2C39 34 66-17 66-93S39-220 2-261h31"
         id="bj" />
      <g
         id="y">
        <use
           transform="matrix(0.08024691358024691,0,0,0.08024691358024691,0,0)"
           xlink:href="#aK"
           id="use558" />
        <use
           transform="matrix(0.08024691358024691,0,0,0.08024691358024691,16.049382716049383,0)"
           xlink:href="#aO"
           id="use560" />
        <use
           transform="matrix(0.08024691358024691,0,0,0.08024691358024691,32.098765432098766,0)"
           xlink:href="#aM"
           id="use562" />
        <use
           transform="matrix(0.08024691358024691,0,0,0.08024691358024691,46.54320987654321,0)"
           xlink:href="#aL"
           id="use564" />
        <use
           transform="matrix(0.08024691358024691,0,0,0.08024691358024691,56.092592592592595,0)"
           xlink:href="#bh"
           id="use566" />
        <use
           transform="matrix(0.08024691358024691,0,0,0.08024691358024691,70.53703703703704,0)"
           xlink:href="#bi"
           id="use568" />
        <use
           transform="matrix(0.08024691358024691,0,0,0.08024691358024691,86.58641975308642,0)"
           xlink:href="#aP"
           id="use570" />
        <use
           transform="matrix(0.08024691358024691,0,0,0.08024691358024691,94.6111111111111,0)"
           xlink:href="#aK"
           id="use572" />
        <use
           transform="matrix(0.08024691358024691,0,0,0.08024691358024691,110.6604938271605,0)"
           xlink:href="#aU"
           id="use574" />
        <use
           transform="matrix(0.08024691358024691,0,0,0.08024691358024691,126.70987654320987,0)"
           xlink:href="#bj"
           id="use576" />
      </g>
      <path
         fill="#fff"
         d="M182-182c0 78-84 86-111 141h115V0H12c-6-101 99-100 120-180 1-22-12-31-33-32-23 0-32 14-35 34l-49-3c5-45 32-70 84-70 51 0 83 22 83 69"
         id="bk" />
      <use
         transform="matrix(0.06790123456790123,0,0,0.06790123456790123,0,0)"
         xlink:href="#bk"
         id="z" />
      <g
         id="A">
        <use
           transform="matrix(0.08024691358024691,0,0,0.08024691358024691,0,0)"
           xlink:href="#aZ"
           id="use581" />
        <use
           transform="matrix(0.08024691358024691,0,0,0.08024691358024691,16.530864197530864,0)"
           xlink:href="#aL"
           id="use583" />
        <use
           transform="matrix(0.08024691358024691,0,0,0.08024691358024691,26.080246913580247,0)"
           xlink:href="#aN"
           id="use585" />
        <use
           transform="matrix(0.08024691358024691,0,0,0.08024691358024691,42.12962962962963,0)"
           xlink:href="#aO"
           id="use587" />
        <use
           transform="matrix(0.08024691358024691,0,0,0.08024691358024691,58.179012345679006,0)"
           xlink:href="#aJ"
           id="use589" />
        <use
           transform="matrix(0.08024691358024691,0,0,0.08024691358024691,72.62345679012346,0)"
           xlink:href="#bd"
           id="use591" />
        <use
           transform="matrix(0.08024691358024691,0,0,0.08024691358024691,96.61728395061728,0)"
           xlink:href="#ba"
           id="use593" />
        <use
           transform="matrix(0.08024691358024691,0,0,0.08024691358024691,102.95679012345678,0)"
           xlink:href="#aP"
           id="use595" />
      </g>
      <g
         id="B">
        <use
           transform="matrix(0.08024691358024691,0,0,0.08024691358024691,0,0)"
           xlink:href="#aK"
           id="use598" />
        <use
           transform="matrix(0.08024691358024691,0,0,0.08024691358024691,16.049382716049383,0)"
           xlink:href="#aO"
           id="use600" />
        <use
           transform="matrix(0.08024691358024691,0,0,0.08024691358024691,32.098765432098766,0)"
           xlink:href="#aM"
           id="use602" />
        <use
           transform="matrix(0.08024691358024691,0,0,0.08024691358024691,46.54320987654321,0)"
           xlink:href="#aL"
           id="use604" />
        <use
           transform="matrix(0.08024691358024691,0,0,0.08024691358024691,56.092592592592595,0)"
           xlink:href="#bh"
           id="use606" />
        <use
           transform="matrix(0.08024691358024691,0,0,0.08024691358024691,70.53703703703704,0)"
           xlink:href="#bi"
           id="use608" />
        <use
           transform="matrix(0.08024691358024691,0,0,0.08024691358024691,86.58641975308642,0)"
           xlink:href="#aP"
           id="use610" />
        <use
           transform="matrix(0.08024691358024691,0,0,0.08024691358024691,94.6111111111111,0)"
           xlink:href="#aK"
           id="use612" />
        <use
           transform="matrix(0.08024691358024691,0,0,0.08024691358024691,110.6604938271605,0)"
           xlink:href="#aU"
           id="use614" />
      </g>
      <path
         fill="#1d1c1d"
         d="M33 0v-38h34V0H33"
         id="bl" />
      <g
         id="C">
        <use
           transform="matrix(0.08024691358024691,0,0,0.08024691358024691,0,0)"
           xlink:href="#aU"
           id="use618" />
        <use
           transform="matrix(0.08024691358024691,0,0,0.08024691358024691,16.049382716049383,0)"
           xlink:href="#aN"
           id="use620" />
        <use
           transform="matrix(0.08024691358024691,0,0,0.08024691358024691,32.098765432098766,0)"
           xlink:href="#aP"
           id="use622" />
        <use
           transform="matrix(0.08024691358024691,0,0,0.08024691358024691,40.123456790123456,0)"
           xlink:href="#aN"
           id="use624" />
        <use
           transform="matrix(0.08024691358024691,0,0,0.08024691358024691,56.172839506172835,0)"
           xlink:href="#bl"
           id="use626" />
      </g>
      <g
         id="D">
        <use
           transform="matrix(0.08024691358024691,0,0,0.08024691358024691,0,0)"
           xlink:href="#aY"
           id="use629" />
        <use
           transform="matrix(0.08024691358024691,0,0,0.08024691358024691,9.549382716049383,0)"
           xlink:href="#aZ"
           id="use631" />
        <use
           transform="matrix(0.08024691358024691,0,0,0.08024691358024691,27.123456790123456,0)"
           xlink:href="#aQ"
           id="use633" />
        <use
           transform="matrix(0.08024691358024691,0,0,0.08024691358024691,43.172839506172835,0)"
           xlink:href="#aK"
           id="use635" />
        <use
           transform="matrix(0.08024691358024691,0,0,0.08024691358024691,59.22222222222221,0)"
           xlink:href="#aL"
           id="use637" />
        <use
           transform="matrix(0.08024691358024691,0,0,0.08024691358024691,68.7716049382716,0)"
           xlink:href="#aK"
           id="use639" />
      </g>
      <g
         id="E">
        <use
           transform="matrix(0.08024691358024691,0,0,0.08024691358024691,0,0)"
           xlink:href="#aO"
           id="use642" />
        <use
           transform="matrix(0.08024691358024691,0,0,0.08024691358024691,16.049382716049383,0)"
           xlink:href="#aT"
           id="use644" />
        <use
           transform="matrix(0.08024691358024691,0,0,0.08024691358024691,32.098765432098766,0)"
           xlink:href="#aP"
           id="use646" />
      </g>
      <g
         id="F">
        <use
           transform="matrix(0.08024691358024691,0,0,0.08024691358024691,0,0)"
           xlink:href="#aN"
           id="use649" />
        <use
           transform="matrix(0.08024691358024691,0,0,0.08024691358024691,16.049382716049383,0)"
           xlink:href="#aO"
           id="use651" />
        <use
           transform="matrix(0.08024691358024691,0,0,0.08024691358024691,32.098765432098766,0)"
           xlink:href="#bh"
           id="use653" />
      </g>
      <g
         id="G">
        <use
           transform="matrix(0.08024691358024691,0,0,0.08024691358024691,0,0)"
           xlink:href="#aJ"
           id="use656" />
        <use
           transform="matrix(0.08024691358024691,0,0,0.08024691358024691,14.444444444444443,0)"
           xlink:href="#aK"
           id="use658" />
        <use
           transform="matrix(0.08024691358024691,0,0,0.08024691358024691,30.493827160493826,0)"
           xlink:href="#aO"
           id="use660" />
        <use
           transform="matrix(0.08024691358024691,0,0,0.08024691358024691,46.54320987654321,0)"
           xlink:href="#aJ"
           id="use662" />
        <use
           transform="matrix(0.08024691358024691,0,0,0.08024691358024691,60.98765432098765,0)"
           xlink:href="#ba"
           id="use664" />
        <use
           transform="matrix(0.08024691358024691,0,0,0.08024691358024691,67.32716049382715,0)"
           xlink:href="#aP"
           id="use666" />
        <use
           transform="matrix(0.08024691358024691,0,0,0.08024691358024691,75.35185185185185,0)"
           xlink:href="#ba"
           id="use668" />
        <use
           transform="matrix(0.08024691358024691,0,0,0.08024691358024691,81.69135802469135,0)"
           xlink:href="#bg"
           id="use670" />
        <use
           transform="matrix(0.08024691358024691,0,0,0.08024691358024691,96.1358024691358,0)"
           xlink:href="#aK"
           id="use672" />
      </g>
      <g
         id="H">
        <use
           transform="matrix(0.08024691358024691,0,0,0.08024691358024691,0,0)"
           xlink:href="#aU"
           id="use675" />
        <use
           transform="matrix(0.08024691358024691,0,0,0.08024691358024691,16.049382716049383,0)"
           xlink:href="#aN"
           id="use677" />
        <use
           transform="matrix(0.08024691358024691,0,0,0.08024691358024691,32.098765432098766,0)"
           xlink:href="#aP"
           id="use679" />
        <use
           transform="matrix(0.08024691358024691,0,0,0.08024691358024691,40.123456790123456,0)"
           xlink:href="#aN"
           id="use681" />
        <use
           transform="matrix(0.08024691358024691,0,0,0.08024691358024691,56.172839506172835,0)"
           xlink:href="#bj"
           id="use683" />
      </g>
      <path
         fill="#fff"
         d="M128-127c34 4 56 21 59 58 7 91-148 94-172 28-4-9-6-17-7-26l51-5c1 24 16 35 40 36 23 0 39-12 38-36-1-31-31-36-65-34v-40c32 2 59-3 59-33 0-20-13-33-34-33s-33 13-35 32l-50-3c6-44 37-68 86-68 50 0 83 20 83 66 0 35-22 52-53 58"
         id="bm" />
      <use
         transform="matrix(0.06790123456790123,0,0,0.06790123456790123,0,0)"
         xlink:href="#bm"
         id="I" />
      <path
         fill="#1d1c1d"
         d="M30-248c118-7 216 8 213 122C240-48 200 0 122 0H30v-248zM63-27c89 8 146-16 146-99s-60-101-146-95v194"
         id="bn" />
      <g
         id="J">
        <use
           transform="matrix(0.08024691358024691,0,0,0.08024691358024691,0,0)"
           xlink:href="#bn"
           id="use689" />
        <use
           transform="matrix(0.08024691358024691,0,0,0.08024691358024691,20.78395061728395,0)"
           xlink:href="#aK"
           id="use691" />
        <use
           transform="matrix(0.08024691358024691,0,0,0.08024691358024691,36.83333333333333,0)"
           xlink:href="#aM"
           id="use693" />
        <use
           transform="matrix(0.08024691358024691,0,0,0.08024691358024691,51.27777777777777,0)"
           xlink:href="#aL"
           id="use695" />
        <use
           transform="matrix(0.08024691358024691,0,0,0.08024691358024691,60.82716049382715,0)"
           xlink:href="#bh"
           id="use697" />
        <use
           transform="matrix(0.08024691358024691,0,0,0.08024691358024691,75.2716049382716,0)"
           xlink:href="#bi"
           id="use699" />
        <use
           transform="matrix(0.08024691358024691,0,0,0.08024691358024691,91.32098765432096,0)"
           xlink:href="#aP"
           id="use701" />
      </g>
      <path
         fill="#1d1c1d"
         d="M205 0l-28-72H64L36 0H1l101-248h38L239 0h-34zm-38-99l-47-123c-12 45-31 82-46 123h93"
         id="bo" />
      <path
         fill="#1d1c1d"
         d="M84 4C-5 8 30-112 23-190h32v120c0 31 7 50 39 49 72-2 45-101 50-169h31l1 190h-30c-1-10 1-25-2-33-11 22-28 36-60 37"
         id="bp" />
      <g
         id="K">
        <use
           transform="matrix(0.08024691358024691,0,0,0.08024691358024691,0,0)"
           xlink:href="#bo"
           id="use706" />
        <use
           transform="matrix(0.08024691358024691,0,0,0.08024691358024691,19.25925925925926,0)"
           xlink:href="#bp"
           id="use708" />
        <use
           transform="matrix(0.08024691358024691,0,0,0.08024691358024691,35.308641975308646,0)"
           xlink:href="#aP"
           id="use710" />
        <use
           transform="matrix(0.08024691358024691,0,0,0.08024691358024691,43.33333333333334,0)"
           xlink:href="#aQ"
           id="use712" />
        <use
           transform="matrix(0.08024691358024691,0,0,0.08024691358024691,59.38271604938272,0)"
           xlink:href="#aK"
           id="use714" />
        <use
           transform="matrix(0.08024691358024691,0,0,0.08024691358024691,75.4320987654321,0)"
           xlink:href="#aO"
           id="use716" />
        <use
           transform="matrix(0.08024691358024691,0,0,0.08024691358024691,91.48148148148148,0)"
           xlink:href="#aP"
           id="use718" />
        <use
           transform="matrix(0.08024691358024691,0,0,0.08024691358024691,99.50617283950619,0)"
           xlink:href="#ba"
           id="use720" />
        <use
           transform="matrix(0.08024691358024691,0,0,0.08024691358024691,105.8456790123457,0)"
           xlink:href="#aM"
           id="use722" />
        <use
           transform="matrix(0.08024691358024691,0,0,0.08024691358024691,120.29012345679014,0)"
           xlink:href="#aN"
           id="use724" />
        <use
           transform="matrix(0.08024691358024691,0,0,0.08024691358024691,136.33950617283952,0)"
           xlink:href="#aP"
           id="use726" />
        <use
           transform="matrix(0.08024691358024691,0,0,0.08024691358024691,144.3641975308642,0)"
           xlink:href="#aK"
           id="use728" />
      </g>
      <path
         fill="#fff"
         d="M165-50V0h-47v-50H5v-38l105-160h55v161h33v37h-33zm-47-37l2-116L46-87h72"
         id="bq" />
      <use
         transform="matrix(0.06790123456790123,0,0,0.06790123456790123,0,0)"
         xlink:href="#bq"
         id="L" />
      <path
         fill="red"
         d="M247 0h-39l-15-214-24 57L95 0H56L31-248h35L82-30l101-218h33l16 218 101-218h35"
         id="br" />
      <path
         fill="red"
         d="M67-158c15-20 31-36 64-36 94 0 33 127 27 194h-32l25-140c3-38-53-32-70-12C52-117 51-51 37 0H6l51-261h31"
         id="bs" />
      <path
         fill="red"
         d="M111-194c62-3 86 47 72 106H45c-7 38 6 69 45 68 27-1 43-14 53-32l24 11C152-15 129 4 87 4 38 3 12-23 12-71c0-70 32-119 99-123zm44 81c14-66-71-72-95-28-4 8-8 17-11 28h106"
         id="bt" />
      <path
         fill="red"
         d="M67-158c22-48 132-52 116 29L158 0h-32l25-140c3-38-53-32-70-12C52-117 51-52 38 0H6l36-190h30"
         id="bu" />
      <g
         id="M">
        <use
           transform="matrix(0.08024691358024691,0,0,0.08024691358024691,0,0)"
           xlink:href="#br"
           id="use737" />
        <use
           transform="matrix(0.08024691358024691,0,0,0.08024691358024691,27.203703703703702,0)"
           xlink:href="#bs"
           id="use739" />
        <use
           transform="matrix(0.08024691358024691,0,0,0.08024691358024691,43.253086419753096,0)"
           xlink:href="#bt"
           id="use741" />
        <use
           transform="matrix(0.08024691358024691,0,0,0.08024691358024691,59.30246913580247,0)"
           xlink:href="#bu"
           id="use743" />
      </g>
      <path
         fill="red"
         d="M187 0l-14-72H61L19 0h-37l149-248h38L221 0h-34zm-19-99l-22-123L76-99h92"
         id="bv" />
      <path
         fill="red"
         d="M67 3c-93-2-31-127-26-193h32L48-50c-3 39 53 32 70 12 30-34 30-101 43-152h32L157 0h-30c1-10 6-24 4-33-14 20-29 37-64 36"
         id="bw" />
      <path
         fill="red"
         d="M51-54c-9 22 5 41 31 30L79-1C43 14 10-4 19-52l22-115H19l5-23h22l19-43h21l-9 43h35l-4 23H73"
         id="bx" />
      <path
         fill="red"
         d="M50-231l6-30h32l-6 30H50zM6 0l37-190h31L37 0H6"
         id="by" />
      <path
         fill="red"
         d="M44-68c0 29 11 47 38 47 30 0 42-19 51-41l28 9C148-21 126 4 82 4 31 4 10-29 12-85c3-77 74-140 146-93 12 8 15 23 18 40l-31 5c-1-22-13-36-36-36-52 0-65 49-65 101"
         id="bz" />
      <path
         fill="red"
         d="M165-48c-4 18 1 34 23 27l-3 20c-29 8-62 0-52-35h-2C116-14 99 4 63 4 30 4 8-16 8-49c0-68 71-67 138-67 10-26 0-56-31-54-26 1-42 9-47 31l-32-5c8-67 160-71 144 15-5 28-9 54-15 81zM42-50c3 52 80 24 89-6 7-12 7-24 11-38-47 1-103-4-100 44"
         id="bA" />
      <path
         fill="red"
         d="M30-147c31-64 166-65 159 27C183-49 158 1 86 4 9 8 1-88 30-147zM88-20c53 0 68-48 68-100 0-31-11-51-44-50-52 1-68 46-68 97 0 32 13 53 44 53"
         id="bB" />
      <g
         id="N">
        <use
           transform="matrix(0.08024691358024691,0,0,0.08024691358024691,0,0)"
           xlink:href="#bv"
           id="use753" />
        <use
           transform="matrix(0.08024691358024691,0,0,0.08024691358024691,19.25925925925926,0)"
           xlink:href="#bw"
           id="use755" />
        <use
           transform="matrix(0.08024691358024691,0,0,0.08024691358024691,35.308641975308646,0)"
           xlink:href="#bx"
           id="use757" />
        <use
           transform="matrix(0.08024691358024691,0,0,0.08024691358024691,43.33333333333334,0)"
           xlink:href="#bs"
           id="use759" />
        <use
           transform="matrix(0.08024691358024691,0,0,0.08024691358024691,59.38271604938272,0)"
           xlink:href="#bt"
           id="use761" />
        <use
           transform="matrix(0.08024691358024691,0,0,0.08024691358024691,75.4320987654321,0)"
           xlink:href="#bu"
           id="use763" />
        <use
           transform="matrix(0.08024691358024691,0,0,0.08024691358024691,91.48148148148148,0)"
           xlink:href="#bx"
           id="use765" />
        <use
           transform="matrix(0.08024691358024691,0,0,0.08024691358024691,99.50617283950619,0)"
           xlink:href="#by"
           id="use767" />
        <use
           transform="matrix(0.08024691358024691,0,0,0.08024691358024691,105.8456790123457,0)"
           xlink:href="#bz"
           id="use769" />
        <use
           transform="matrix(0.08024691358024691,0,0,0.08024691358024691,120.29012345679014,0)"
           xlink:href="#bA"
           id="use771" />
        <use
           transform="matrix(0.08024691358024691,0,0,0.08024691358024691,136.33950617283952,0)"
           xlink:href="#bx"
           id="use773" />
        <use
           transform="matrix(0.08024691358024691,0,0,0.08024691358024691,144.3641975308642,0)"
           xlink:href="#by"
           id="use775" />
        <use
           transform="matrix(0.08024691358024691,0,0,0.08024691358024691,150.7037037037037,0)"
           xlink:href="#bB"
           id="use777" />
        <use
           transform="matrix(0.08024691358024691,0,0,0.08024691358024691,166.7530864197531,0)"
           xlink:href="#bu"
           id="use779" />
      </g>
      <path
         fill="red"
         d="M76-167L44 0H12l33-167H18l4-23h27c3-47 25-81 82-69l-4 24c-35-8-44 15-46 45h37l-5 23H76"
         id="bC" />
      <path
         fill="red"
         d="M6 0l50-261h32L37 0H6"
         id="bD" />
      <path
         fill="red"
         d="M133-28C103 26-5 8 13-77c13-62 24-115 90-117 29-1 46 15 56 35l19-102h32L160 0h-30zM45-64c-2 27 10 43 35 43 54-1 69-50 69-103 0-29-15-46-42-46-53-1-58 58-62 106"
         id="bE" />
      <g
         id="O">
        <use
           transform="matrix(0.08024691358024691,0,0,0.08024691358024691,0,0)"
           xlink:href="#bC"
           id="use785" />
        <use
           transform="matrix(0.08024691358024691,0,0,0.08024691358024691,8.024691358024691,0)"
           xlink:href="#bA"
           id="use787" />
        <use
           transform="matrix(0.08024691358024691,0,0,0.08024691358024691,24.074074074074076,0)"
           xlink:href="#by"
           id="use789" />
        <use
           transform="matrix(0.08024691358024691,0,0,0.08024691358024691,30.413580246913583,0)"
           xlink:href="#bD"
           id="use791" />
        <use
           transform="matrix(0.08024691358024691,0,0,0.08024691358024691,36.75308641975309,0)"
           xlink:href="#bt"
           id="use793" />
        <use
           transform="matrix(0.08024691358024691,0,0,0.08024691358024691,52.80246913580247,0)"
           xlink:href="#bE"
           id="use795" />
      </g>
      <g
         id="P">
        <use
           transform="matrix(0.08024691358024691,0,0,0.08024691358024691,0,0)"
           xlink:href="#bx"
           id="use798" />
        <use
           transform="matrix(0.08024691358024691,0,0,0.08024691358024691,8.024691358024691,0)"
           xlink:href="#bs"
           id="use800" />
        <use
           transform="matrix(0.08024691358024691,0,0,0.08024691358024691,24.074074074074076,0)"
           xlink:href="#bt"
           id="use802" />
      </g>
      <path
         fill="red"
         d="M66-151c12-25 30-51 66-40l-6 26C45-176 58-65 38 0H6l36-190h30"
         id="bF" />
      <path
         fill="red"
         d="M133-28C103 26-5 8 13-77c13-62 24-115 90-117 29-1 46 15 56 35 2-12 6-24 8-34h31L144 75h-31zM45-64c-2 27 10 43 35 43 54-1 69-50 69-103 0-29-15-46-42-46-53-1-58 58-62 106"
         id="bG" />
      <path
         fill="red"
         d="M55-144c13 50 104 24 104 88C159 21 15 23 1-39l26-10c6 40 102 42 102-4-13-50-104-23-104-87 0-71 143-71 148-8l-29 4c-5-35-85-37-89 0"
         id="bH" />
      <g
         id="Q">
        <use
           transform="matrix(0.08024691358024691,0,0,0.08024691358024691,0,0)"
           xlink:href="#bF"
           id="use808" />
        <use
           transform="matrix(0.08024691358024691,0,0,0.08024691358024691,9.549382716049383,0)"
           xlink:href="#bt"
           id="use810" />
        <use
           transform="matrix(0.08024691358024691,0,0,0.08024691358024691,25.598765432098762,0)"
           xlink:href="#bG"
           id="use812" />
        <use
           transform="matrix(0.08024691358024691,0,0,0.08024691358024691,41.64814814814815,0)"
           xlink:href="#bw"
           id="use814" />
        <use
           transform="matrix(0.08024691358024691,0,0,0.08024691358024691,57.697530864197525,0)"
           xlink:href="#bt"
           id="use816" />
        <use
           transform="matrix(0.08024691358024691,0,0,0.08024691358024691,73.74691358024691,0)"
           xlink:href="#bH"
           id="use818" />
        <use
           transform="matrix(0.08024691358024691,0,0,0.08024691358024691,88.19135802469135,0)"
           xlink:href="#bx"
           id="use820" />
      </g>
      <g
         id="R">
        <use
           transform="matrix(0.08024691358024691,0,0,0.08024691358024691,0,0)"
           xlink:href="#by"
           id="use823" />
        <use
           transform="matrix(0.08024691358024691,0,0,0.08024691358024691,6.3395061728395055,0)"
           xlink:href="#bH"
           id="use825" />
      </g>
      <path
         fill="red"
         d="M51-231l6-30h31l-6 30H51zM33 24C28 60 2 84-40 72c3-12-1-29 18-22C-5 49-1 37 2 19l41-209h32"
         id="bI" />
      <g
         id="S">
        <use
           transform="matrix(0.08024691358024691,0,0,0.08024691358024691,0,0)"
           xlink:href="#bF"
           id="use829" />
        <use
           transform="matrix(0.08024691358024691,0,0,0.08024691358024691,9.549382716049383,0)"
           xlink:href="#bt"
           id="use831" />
        <use
           transform="matrix(0.08024691358024691,0,0,0.08024691358024691,25.598765432098762,0)"
           xlink:href="#bI"
           id="use833" />
        <use
           transform="matrix(0.08024691358024691,0,0,0.08024691358024691,31.938271604938276,0)"
           xlink:href="#bt"
           id="use835" />
        <use
           transform="matrix(0.08024691358024691,0,0,0.08024691358024691,47.98765432098766,0)"
           xlink:href="#bz"
           id="use837" />
        <use
           transform="matrix(0.08024691358024691,0,0,0.08024691358024691,62.4320987654321,0)"
           xlink:href="#bx"
           id="use839" />
        <use
           transform="matrix(0.08024691358024691,0,0,0.08024691358024691,70.4567901234568,0)"
           xlink:href="#bt"
           id="use841" />
        <use
           transform="matrix(0.08024691358024691,0,0,0.08024691358024691,86.50617283950619,0)"
           xlink:href="#bE"
           id="use843" />
      </g>
      <g
         id="T">
        <use
           transform="matrix(0.08024691358024691,0,0,0.08024691358024691,0,0)"
           xlink:href="#bx"
           id="use846" />
        <use
           transform="matrix(0.08024691358024691,0,0,0.08024691358024691,8.024691358024691,0)"
           xlink:href="#bs"
           id="use848" />
        <use
           transform="matrix(0.08024691358024691,0,0,0.08024691358024691,24.074074074074076,0)"
           xlink:href="#bt"
           id="use850" />
      </g>
      <path
         fill="red"
         d="M24-61C-1-165 59-251 163-251c67 1 105 36 105 101 0 88-46 140-124 152 2 33 24 47 60 39l-3 23c-50 15-89-11-89-61-46-3-79-26-88-64zm210-73c6-55-18-91-72-90-77 1-111 51-111 125 0 49 24 75 73 75 72 0 103-45 110-110"
         id="bJ" />
      <path
         fill="red"
         d="M249-183c0 48-29 72-75 77L221 0h-36l-43-103H65L45 0H11l48-248c83 2 190-17 190 65zm-34 3c0-55-74-39-127-41l-18 92c63-1 145 13 145-51"
         id="bK" />
      <g
         id="U">
        <use
           transform="matrix(0.08024691358024691,0,0,0.08024691358024691,0,0)"
           xlink:href="#bJ"
           id="use855" />
        <use
           transform="matrix(0.08024691358024691,0,0,0.08024691358024691,22.469135802469136,0)"
           xlink:href="#bK"
           id="use857" />
      </g>
      <path
         fill="red"
         d="M125-24c46 0 70-25 89-51l25 16C214-24 183 4 123 4 8 4-5-146 60-208c32-50 158-61 191-5 5 7 9 14 11 22l-32 10c-9-28-33-43-69-43-74 0-108 51-108 125 0 46 24 75 72 75"
         id="bL" />
      <g
         id="V">
        <use
           transform="matrix(0.08024691358024691,0,0,0.08024691358024691,0,0)"
           xlink:href="#bL"
           id="use861" />
        <use
           transform="matrix(0.08024691358024691,0,0,0.08024691358024691,20.78395061728395,0)"
           xlink:href="#bB"
           id="use863" />
        <use
           transform="matrix(0.08024691358024691,0,0,0.08024691358024691,36.83333333333333,0)"
           xlink:href="#bE"
           id="use865" />
        <use
           transform="matrix(0.08024691358024691,0,0,0.08024691358024691,52.8827160493827,0)"
           xlink:href="#bt"
           id="use867" />
      </g>
      <path
         fill="red"
         d="M188 0h-37l-8-164L71 0H34L18-190h31l8 164 75-164h34l8 164 74-164h31"
         id="bM" />
      <g
         id="W">
        <use
           transform="matrix(0.08024691358024691,0,0,0.08024691358024691,0,0)"
           xlink:href="#bM"
           id="use871" />
        <use
           transform="matrix(0.08024691358024691,0,0,0.08024691358024691,20.78395061728395,0)"
           xlink:href="#bA"
           id="use873" />
        <use
           transform="matrix(0.08024691358024691,0,0,0.08024691358024691,36.83333333333333,0)"
           xlink:href="#bH"
           id="use875" />
      </g>
      <path
         fill="red"
         d="M103-194c29 0 47 14 56 36 2-11 5-23 8-32h30L160-5C157 61 82 97 21 62 9 55 4 45 1 30l28-7c7 42 83 31 92-3 4-16 9-38 13-55-13 20-29 36-62 36-40 0-60-25-60-64 0-71 23-131 91-131zm4 24c-53 0-58 54-61 104-2 27 10 44 36 44 49 0 65-50 67-102 1-29-15-46-42-46"
         id="bN" />
      <g
         id="X">
        <use
           transform="matrix(0.08024691358024691,0,0,0.08024691358024691,0,0)"
           xlink:href="#bz"
           id="use879" />
        <use
           transform="matrix(0.08024691358024691,0,0,0.08024691358024691,14.444444444444443,0)"
           xlink:href="#bs"
           id="use881" />
        <use
           transform="matrix(0.08024691358024691,0,0,0.08024691358024691,30.493827160493826,0)"
           xlink:href="#bA"
           id="use883" />
        <use
           transform="matrix(0.08024691358024691,0,0,0.08024691358024691,46.54320987654321,0)"
           xlink:href="#bu"
           id="use885" />
        <use
           transform="matrix(0.08024691358024691,0,0,0.08024691358024691,62.592592592592595,0)"
           xlink:href="#bN"
           id="use887" />
        <use
           transform="matrix(0.08024691358024691,0,0,0.08024691358024691,78.64197530864197,0)"
           xlink:href="#bt"
           id="use889" />
        <use
           transform="matrix(0.08024691358024691,0,0,0.08024691358024691,94.69135802469135,0)"
           xlink:href="#bE"
           id="use891" />
      </g>
      <g
         id="Y">
        <use
           transform="matrix(0.08024691358024691,0,0,0.08024691358024691,0,0)"
           xlink:href="#bB"
           id="use894" />
        <use
           transform="matrix(0.08024691358024691,0,0,0.08024691358024691,16.049382716049383,0)"
           xlink:href="#bF"
           id="use896" />
      </g>
      <path
         fill="red"
         d="M124 0L87-78 21 0h-35l86-98-46-92h33l34 74 61-74h37l-83 92 50 98h-34"
         id="bO" />
      <path
         fill="red"
         d="M67-162c32-53 139-36 121 50C175-51 163 2 97 4 68 4 52-11 42-31 38 6 28 39 22 75H-9l50-265h29c-1 10 0 20-3 28zm89 36c0-26-10-43-35-43-54 0-67 50-69 103-1 29 14 45 42 46 53 0 62-58 62-106"
         id="bP" />
      <g
         id="Z">
        <use
           transform="matrix(0.08024691358024691,0,0,0.08024691358024691,0,0)"
           xlink:href="#bt"
           id="use901" />
        <use
           transform="matrix(0.08024691358024691,0,0,0.08024691358024691,16.049382716049383,0)"
           xlink:href="#bO"
           id="use903" />
        <use
           transform="matrix(0.08024691358024691,0,0,0.08024691358024691,30.493827160493826,0)"
           xlink:href="#bP"
           id="use905" />
        <use
           transform="matrix(0.08024691358024691,0,0,0.08024691358024691,46.54320987654321,0)"
           xlink:href="#by"
           id="use907" />
        <use
           transform="matrix(0.08024691358024691,0,0,0.08024691358024691,52.882716049382715,0)"
           xlink:href="#bF"
           id="use909" />
        <use
           transform="matrix(0.08024691358024691,0,0,0.08024691358024691,62.4320987654321,0)"
           xlink:href="#bt"
           id="use911" />
        <use
           transform="matrix(0.08024691358024691,0,0,0.08024691358024691,78.48148148148148,0)"
           xlink:href="#bE"
           id="use913" />
      </g>
      <g
         id="aa">
        <use
           transform="matrix(0.08024691358024691,0,0,0.08024691358024691,0,0)"
           xlink:href="#bx"
           id="use916" />
        <use
           transform="matrix(0.08024691358024691,0,0,0.08024691358024691,8.024691358024691,0)"
           xlink:href="#bs"
           id="use918" />
        <use
           transform="matrix(0.08024691358024691,0,0,0.08024691358024691,24.074074074074076,0)"
           xlink:href="#bt"
           id="use920" />
      </g>
      <path
         fill="#fff"
         d="M139-81c0-46-55-55-73-27H18l9-140h149v37H72l-4 63c44-38 133-4 122 66C201 21 21 35 11-62l49-4c5 18 15 30 39 30 26 0 40-18 40-45"
         id="bQ" />
      <use
         transform="matrix(0.06790123456790123,0,0,0.06790123456790123,0,0)"
         xlink:href="#bQ"
         id="ab" />
      <path
         fill="#1d1c1d"
         d="M9 0v-24l116-142H16v-24h144v24L44-24h123V0H9"
         id="bR" />
      <g
         id="ac">
        <use
           transform="matrix(0.08024691358024691,0,0,0.08024691358024691,0,0)"
           xlink:href="#bo"
           id="use926" />
        <use
           transform="matrix(0.08024691358024691,0,0,0.08024691358024691,19.25925925925926,0)"
           xlink:href="#bp"
           id="use928" />
        <use
           transform="matrix(0.08024691358024691,0,0,0.08024691358024691,35.308641975308646,0)"
           xlink:href="#aP"
           id="use930" />
        <use
           transform="matrix(0.08024691358024691,0,0,0.08024691358024691,43.33333333333334,0)"
           xlink:href="#aQ"
           id="use932" />
        <use
           transform="matrix(0.08024691358024691,0,0,0.08024691358024691,59.38271604938272,0)"
           xlink:href="#aT"
           id="use934" />
        <use
           transform="matrix(0.08024691358024691,0,0,0.08024691358024691,75.4320987654321,0)"
           xlink:href="#aL"
           id="use936" />
        <use
           transform="matrix(0.08024691358024691,0,0,0.08024691358024691,84.98148148148148,0)"
           xlink:href="#ba"
           id="use938" />
        <use
           transform="matrix(0.08024691358024691,0,0,0.08024691358024691,91.32098765432099,0)"
           xlink:href="#bR"
           id="use940" />
        <use
           transform="matrix(0.08024691358024691,0,0,0.08024691358024691,105.76543209876543,0)"
           xlink:href="#aK"
           id="use942" />
      </g>
      <path
         fill="#1ccd3c"
         d="M30-248c87 1 191-15 191 75 0 78-77 80-158 76V0H30v-248zm33 125c57 0 124 11 124-50 0-59-68-47-124-48v98"
         id="bS" />
      <path
         fill="#1ccd3c"
         d="M141-36C126-15 110 5 73 4 37 3 15-17 15-53c-1-64 63-63 125-63 3-35-9-54-41-54-24 1-41 7-42 31l-33-3c5-37 33-52 76-52 45 0 72 20 72 64v82c-1 20 7 32 28 27v20c-31 9-61-2-59-35zM48-53c0 20 12 33 32 33 41-3 63-29 60-74-43 2-92-5-92 41"
         id="bT" />
      <path
         fill="#1ccd3c"
         d="M179-190L93 31C79 59 56 82 12 73V49c39 6 53-20 64-50L1-190h34L92-34l54-156h33"
         id="bU" />
      <path
         fill="#1ccd3c"
         d="M210-169c-67 3-38 105-44 169h-31v-121c0-29-5-50-35-48C34-165 62-65 56 0H25l-1-190h30c1 10-1 24 2 32 10-44 99-50 107 0 11-21 27-35 58-36 85-2 47 119 55 194h-31v-121c0-29-5-49-35-48"
         id="bV" />
      <path
         fill="#1ccd3c"
         d="M100-194c63 0 86 42 84 106H49c0 40 14 67 53 68 26 1 43-12 49-29l28 8c-11 28-37 45-77 45C44 4 14-33 15-96c1-61 26-98 85-98zm52 81c6-60-76-77-97-28-3 7-6 17-6 28h103"
         id="bW" />
      <path
         fill="#1ccd3c"
         d="M117-194c89-4 53 116 60 194h-32v-121c0-31-8-49-39-48C34-167 62-67 57 0H25l-1-190h30c1 10-1 24 2 32 11-22 29-35 61-36"
         id="bX" />
      <path
         fill="#1ccd3c"
         d="M59-47c-2 24 18 29 38 22v24C64 9 27 4 27-40v-127H5v-23h24l9-43h21v43h35v23H59v120"
         id="bY" />
      <g
         id="ad">
        <use
           transform="matrix(0.08024691358024691,0,0,0.08024691358024691,0,0)"
           xlink:href="#bS"
           id="use952" />
        <use
           transform="matrix(0.08024691358024691,0,0,0.08024691358024691,19.25925925925926,0)"
           xlink:href="#bT"
           id="use954" />
        <use
           transform="matrix(0.08024691358024691,0,0,0.08024691358024691,35.308641975308646,0)"
           xlink:href="#bU"
           id="use956" />
        <use
           transform="matrix(0.08024691358024691,0,0,0.08024691358024691,49.753086419753096,0)"
           xlink:href="#bV"
           id="use958" />
        <use
           transform="matrix(0.08024691358024691,0,0,0.08024691358024691,73.74691358024691,0)"
           xlink:href="#bW"
           id="use960" />
        <use
           transform="matrix(0.08024691358024691,0,0,0.08024691358024691,89.79629629629629,0)"
           xlink:href="#bX"
           id="use962" />
        <use
           transform="matrix(0.08024691358024691,0,0,0.08024691358024691,105.84567901234567,0)"
           xlink:href="#bY"
           id="use964" />
      </g>
      <path
         fill="#1ccd3c"
         d="M233-177c-1 41-23 64-60 70L243 0h-38l-65-103H63V0H30v-248c88 3 205-21 203 71zM63-129c60-2 137 13 137-47 0-61-80-42-137-45v92"
         id="bZ" />
      <path
         fill="#1ccd3c"
         d="M145-31C134-9 116 4 85 4 32 4 16-35 15-94c0-59 17-99 70-100 32-1 48 14 60 33 0-11-1-24 2-32h30l-1 268h-32zM93-21c41 0 51-33 51-76s-8-73-50-73c-40 0-46 35-46 75s5 74 45 74"
         id="ca" />
      <path
         fill="#1ccd3c"
         d="M84 4C-5 8 30-112 23-190h32v120c0 31 7 50 39 49 72-2 45-101 50-169h31l1 190h-30c-1-10 1-25-2-33-11 22-28 36-60 37"
         id="cb" />
      <path
         fill="#1ccd3c"
         d="M135-143c-3-34-86-38-87 0 15 53 115 12 119 90S17 21 10-45l28-5c4 36 97 45 98 0-10-56-113-15-118-90-4-57 82-63 122-42 12 7 21 19 24 35"
         id="cc" />
      <g
         id="ae">
        <use
           transform="matrix(0.08024691358024691,0,0,0.08024691358024691,0,0)"
           xlink:href="#bZ"
           id="use971" />
        <use
           transform="matrix(0.08024691358024691,0,0,0.08024691358024691,20.78395061728395,0)"
           xlink:href="#bW"
           id="use973" />
        <use
           transform="matrix(0.08024691358024691,0,0,0.08024691358024691,36.83333333333333,0)"
           xlink:href="#ca"
           id="use975" />
        <use
           transform="matrix(0.08024691358024691,0,0,0.08024691358024691,52.8827160493827,0)"
           xlink:href="#cb"
           id="use977" />
        <use
           transform="matrix(0.08024691358024691,0,0,0.08024691358024691,68.93209876543209,0)"
           xlink:href="#bW"
           id="use979" />
        <use
           transform="matrix(0.08024691358024691,0,0,0.08024691358024691,84.98148148148145,0)"
           xlink:href="#cc"
           id="use981" />
        <use
           transform="matrix(0.08024691358024691,0,0,0.08024691358024691,99.4259259259259,0)"
           xlink:href="#bY"
           id="use983" />
      </g>
      <path
         fill="#1ccd3c"
         d="M114-163C36-179 61-72 57 0H25l-1-190h30c1 12-1 29 2 39 6-27 23-49 58-41v29"
         id="cd" />
      <path
         fill="#1ccd3c"
         d="M100-194c62-1 85 37 85 99 1 63-27 99-86 99S16-35 15-95c0-66 28-99 85-99zM99-20c44 1 53-31 53-75 0-43-8-75-51-75s-53 32-53 75 10 74 51 75"
         id="ce" />
      <path
         fill="#1ccd3c"
         d="M96-169c-40 0-48 33-48 73s9 75 48 75c24 0 41-14 43-38l32 2c-6 37-31 61-74 61-59 0-76-41-82-99-10-93 101-131 147-64 4 7 5 14 7 22l-32 3c-4-21-16-35-41-35"
         id="cf" />
      <path
         fill="#1ccd3c"
         d="M24-231v-30h32v30H24zM24 0v-190h32V0H24"
         id="cg" />
      <path
         fill="#1ccd3c"
         d="M177-190C167-65 218 103 67 71c-23-6-38-20-44-43l32-5c15 47 100 32 89-28v-30C133-14 115 1 83 1 29 1 15-40 15-95c0-56 16-97 71-98 29-1 48 16 59 35 1-10 0-23 2-32h30zM94-22c36 0 50-32 50-73 0-42-14-75-50-75-39 0-46 34-46 75s6 73 46 73"
         id="ch" />
      <g
         id="af">
        <use
           transform="matrix(0.08024691358024691,0,0,0.08024691358024691,0,0)"
           xlink:href="#bS"
           id="use991" />
        <use
           transform="matrix(0.08024691358024691,0,0,0.08024691358024691,19.25925925925926,0)"
           xlink:href="#cd"
           id="use993" />
        <use
           transform="matrix(0.08024691358024691,0,0,0.08024691358024691,28.80864197530864,0)"
           xlink:href="#ce"
           id="use995" />
        <use
           transform="matrix(0.08024691358024691,0,0,0.08024691358024691,44.858024691358025,0)"
           xlink:href="#cf"
           id="use997" />
        <use
           transform="matrix(0.08024691358024691,0,0,0.08024691358024691,59.30246913580247,0)"
           xlink:href="#bW"
           id="use999" />
        <use
           transform="matrix(0.08024691358024691,0,0,0.08024691358024691,75.35185185185185,0)"
           xlink:href="#cc"
           id="use1001" />
        <use
           transform="matrix(0.08024691358024691,0,0,0.08024691358024691,89.79629629629629,0)"
           xlink:href="#cc"
           id="use1003" />
        <use
           transform="matrix(0.08024691358024691,0,0,0.08024691358024691,104.24074074074073,0)"
           xlink:href="#cg"
           id="use1005" />
        <use
           transform="matrix(0.08024691358024691,0,0,0.08024691358024691,110.58024691358024,0)"
           xlink:href="#bX"
           id="use1007" />
        <use
           transform="matrix(0.08024691358024691,0,0,0.08024691358024691,126.62962962962962,0)"
           xlink:href="#ch"
           id="use1009" />
      </g>
    </defs>
  </g>
  <text
     xml:space="preserve"
     style="font-size:37.3333px;line-height:1.25;font-family:sans-serif;-inkscape-font-specification:'sans-serif, Normal';fill:#4a9dcc;fill-opacity:1;"
     x="153.51587"
     y="65.077385"
     id="text1849"><tspan
       sodipodi:role="line"
       id="tspan1847"
       x="153.51587"
       y="65.077385"> / </tspan></text>
  <text
     xml:space="preserve"
     style="font-size:42.6667px;line-height:1.25;font-family:sans-serif;-inkscape-font-specification:'sans-serif, Normal';fill:#4a9dcc;fill-opacity:1;"
     x="190.22618"
     y="325.3869"
     id="text1853"><tspan
       sodipodi:role="line"
       id="tspan1851"
       x="190.22618"
       y="325.3869"></tspan></text>
  <text
     xml:space="preserve"
     style="font-size:42.6667px;line-height:1.25;font-family:sans-serif;-inkscape-font-specification:'sans-serif, Normal';fill:#4a9dcc;fill-opacity:1;"
     x="1199.7599"
     y="1299.879"
     id="text1857"><tspan
       sodipodi:role="line"
       id="tspan1855"
       x="1199.7599"
       y="1299.879"
       style="font-size:42.6667px;fill:#4a9dcc;fill-opacity:1;"></tspan></text>
  <text
     xml:space="preserve"
     style="font-size:29.3333px;line-height:1.25;font-family:sans-serif;-inkscape-font-specification:'sans-serif, Normal'"
     x="570.67859"
     y="170.20238"
     id="text1861"><tspan
       sodipodi:role="line"
       id="tspan1859"
       x="570.67859"
       y="170.20238">POS</tspan><tspan
       sodipodi:role="line"
       x="570.67859"
       y="209.72108"
       id="tspan1863">(</tspan><tspan
       sodipodi:role="line"
       x="570.67859"
       y="249.23979"
       id="tspan1865">)</tspan></text>
  <text
     xml:space="preserve"
     style="font-size:29.3333px;line-height:1.25;font-family:sans-serif;-inkscape-font-specification:'sans-serif, Normal'"
     x="872.70435"
     y="490.58331"
     id="text1869"><tspan
       sodipodi:role="line"
       id="tspan1867"
       x="872.70435"
       y="490.58331"></tspan><tspan
       sodipodi:role="line"
       x="872.70435"
       y="530.10205"
       id="tspan1871">()</tspan></text>
  <text
     xml:space="preserve"
     style="font-size:29.3333px;line-height:1.25;font-family:sans-serif;-inkscape-font-specification:'sans-serif, Normal'"
     x="1636.9464"
     y="659.11707"
     id="text1875"><tspan
       sodipodi:role="line"
       id="tspan1873"
       x="1636.9464"
       y="659.11707" /></text>
  <text
     xml:space="preserve"
     style="font-size:29.3333px;line-height:1.25;font-family:sans-serif;-inkscape-font-specification:'sans-serif, Normal';fill:#ff0000;fill-opacity:1;"
     x="1611.9166"
     y="744.21826"
     id="text1879"><tspan
       sodipodi:role="line"
       id="tspan1877"
       x="1611.9166"
       y="744.21826"
       style="font-style:italic;font-variant:normal;font-weight:normal;font-stretch:normal;font-size:29.3333px;font-family:sans-serif;-inkscape-font-specification:'sans-serif, Italic';font-variant-ligatures:normal;font-variant-caps:normal;font-variant-numeric:normal;font-variant-east-asian:normal;fill:#ff0000;fill-opacity:1;"></tspan><tspan
       sodipodi:role="line"
       x="1611.9166"
       y="783.73694"
       id="tspan1887"
       style="font-style:italic;font-variant:normal;font-weight:normal;font-stretch:normal;font-size:29.3333px;font-family:sans-serif;-inkscape-font-specification:'sans-serif, Italic';font-variant-ligatures:normal;font-variant-caps:normal;font-variant-numeric:normal;font-variant-east-asian:normal;fill:#ff0000;fill-opacity:1;"></tspan></text>
  <text
     xml:space="preserve"
     style="font-size:29.3333px;line-height:1.25;font-family:sans-serif;-inkscape-font-specification:'sans-serif, Normal';fill:#ff0000;fill-opacity:1;"
     x="1596.8988"
     y="1209.7717"
     id="text1883"><tspan
       sodipodi:role="line"
       id="tspan1881"
       x="1596.8988"
       y="1209.7717"
       style="font-style:italic;font-variant:normal;font-weight:normal;font-stretch:normal;font-size:29.3333px;font-family:sans-serif;-inkscape-font-specification:'sans-serif, Italic';font-variant-ligatures:normal;font-variant-caps:normal;font-variant-numeric:normal;font-variant-east-asian:normal;fill:#ff0000;fill-opacity:1;"></tspan><tspan
       sodipodi:role="line"
       x="1596.8988"
       y="1249.2904"
       id="tspan1885"
       style="font-style:italic;font-variant:normal;font-weight:normal;font-stretch:normal;font-size:29.3333px;font-family:sans-serif;-inkscape-font-specification:'sans-serif, Italic';font-variant-ligatures:normal;font-variant-caps:normal;font-variant-numeric:normal;font-variant-east-asian:normal;fill:#ff0000;fill-opacity:1;"></tspan></text>
  <text
     xml:space="preserve"
     id="text1889"
     style="line-height:1.25;font-family:sans-serif;font-size:29.33329964px;-inkscape-font-specification:'sans-serif, Normal';white-space:pre;shape-inside:url(#rect1891);" />
  <text
     xml:space="preserve"
     style="font-size:29.3333px;line-height:1.25;font-family:sans-serif;-inkscape-font-specification:'sans-serif, Normal'"
     x="861.0238"
     y="1286.5299"
     id="text1897"><tspan
       sodipodi:role="line"
       id="tspan1895"
       x="861.0238"
       y="1286.5299"></tspan></text>
  <text
     xml:space="preserve"
     style="font-size:29.3333px;line-height:1.25;font-family:sans-serif;-inkscape-font-specification:'sans-serif, Normal';fill:#34d251;fill-opacity:1"
     x="1259.8314"
     y="1593.5615"
     id="text1901"><tspan
       sodipodi:role="line"
       id="tspan1899"
       x="1259.8314"
       y="1593.5615"></tspan></text>
  <text
     xml:space="preserve"
     style="font-size:29.3333px;line-height:1.25;font-family:sans-serif;-inkscape-font-specification:'sans-serif, Normal'"
     x="814.30157"
     y="827.65082"
     id="text1905"><tspan
       sodipodi:role="line"
       id="tspan1903"
       x="814.30157"
       y="827.65082"></tspan></text>
  <text
     xml:space="preserve"
     style="font-size:29.3333px;line-height:1.25;font-family:sans-serif;-inkscape-font-specification:'sans-serif, Normal'"
     x="877.71033"
     y="1014.5397"
     id="text1909"><tspan
       sodipodi:role="line"
       id="tspan1907"
       x="877.71033"
       y="1014.5397"></tspan><tspan
       sodipodi:role="line"
       x="877.71033"
       y="1054.0583"
       id="tspan1911">()</tspan></text>
</svg>
